<!--
  - Copyright (c) 2017,2022-2023 Alex Urich <urichalex@mail.ru>
  - License: GNU LGPL 2 only, see file LICENSE
  -->

<svg fill="#000000" xmlns="http://www.w3.org/2000/svg" width="256px" height="256px" viewBox="0 0 100.00 100.00" enable-background="new 0 0 100 100" xml:space="preserve" stroke="#000000" stroke-width="0.001" transform="matrix(1, 0, 0, 1, 0, 0)rotate(0)"><g id="SVGRepo_bgCarrier" stroke-width="0"><rect x="0" y="0" width="100.00" height="100.00" rx="0" fill="#f2f2f2" strokewidth="0"></rect></g><g id="SVGRepo_tracerCarrier" stroke-linecap="round" stroke-linejoin="round" stroke="#CCCCCC" stroke-width="0.4"></g><g id="SVGRepo_iconCarrier"> <g opacity="0.5"> <g> <path d="M80,71.2V74c0,3.3-2.7,6-6,6H26c-3.3,0-6-2.7-6-6v-2.8c0-7.3,8.5-11.7,16.5-15.2c0.3-0.1,0.5-0.2,0.8-0.4 c0.6-0.3,1.3-0.3,1.9,0.1C42.4,57.8,46.1,59,50,59s7.6-1.2,10.8-3.2c0.6-0.4,1.3-0.4,1.9-0.1c0.3,0.1,0.5,0.2,0.8,0.4 C71.5,59.5,80,63.9,80,71.2z"></path> </g> <g> <ellipse cx="50" cy="36.5" rx="14.9" ry="16.5"></ellipse> </g> </g> </g></svg>